<svg width="742" height="744" viewBox="0 0 742 744" fill="none" xmlns="http://www.w3.org/2000/svg">
<path d="M719.5 372C719.5 565.081 563.414 721.5 371 721.5C178.586 721.5 22.5 565.081 22.5 372C22.5 178.919 178.586 22.5 371 22.5C563.414 22.5 719.5 178.919 719.5 372Z" stroke="black" stroke-width="45"/>
<path d="M287.295 203.055C321.448 203.055 357.782 211.957 396.295 229.76C435.172 247.563 468.598 272.27 496.575 303.88C524.552 335.127 538.54 367.645 538.54 401.435C538.54 423.598 523.098 449.758 492.215 479.915C461.695 509.708 426.27 535.323 385.94 556.76C345.61 577.833 312.183 588.37 285.66 588.37C278.757 588.37 270.763 582.557 261.68 570.93C252.96 558.94 248.6 546.95 248.6 534.96C248.6 522.607 259.137 478.643 280.21 403.07C301.283 327.497 312.728 277.72 314.545 253.74C302.918 249.017 293.653 242.84 286.75 235.21C279.847 227.58 276.395 220.313 276.395 213.41C276.395 206.507 280.028 203.055 287.295 203.055ZM488.4 395.44C488.4 372.913 474.957 348.57 448.07 322.41C421.183 295.887 389.937 276.812 354.33 265.185C356.147 271.725 357.055 279.537 357.055 288.62C357.055 297.34 353.785 313.872 347.245 338.215C341.068 362.558 329.623 403.252 312.91 460.295C306.007 484.275 300.375 510.617 296.015 539.32C321.085 536.05 349.062 525.15 379.945 506.62C411.192 487.727 436.988 467.562 457.335 446.125C478.045 424.688 488.4 407.793 488.4 395.44Z" fill="black"/>
</svg>
