<svg width="383" height="384" xmlns="http://www.w3.org/2000/svg" xmlns:xlink="http://www.w3.org/1999/xlink" xml:space="preserve" overflow="hidden"><g transform="translate(-120 -150)"><path d="M371.355 192C371.355 291.655 290.794 372.387 191.484 372.387 92.1734 372.387 11.6129 291.655 11.6129 192 11.6129 92.3453 92.1734 11.6129 191.484 11.6129 290.794 11.6129 371.355 92.3453 371.355 192Z" stroke="#FFFFFF" stroke-width="23.2258" transform="matrix(1.00008 0 0 1 120 150)"/><path d="M148.281 104.803C165.909 104.803 184.662 109.397 204.539 118.586 224.605 127.774 241.857 140.526 256.297 156.841 270.737 172.969 277.956 189.752 277.956 207.192 277.956 218.631 269.986 232.133 254.046 247.698 238.294 263.075 220.01 276.296 199.195 287.36 178.379 298.236 161.127 303.675 147.437 303.675 143.875 303.675 139.749 300.675 135.061 294.674 130.56 288.485 128.31 282.297 128.31 276.108 128.31 269.733 133.748 247.042 144.625 208.036 155.501 169.031 161.408 143.339 162.346 130.963 156.345 128.525 151.563 125.337 148 121.399 144.437 117.461 142.655 113.71 142.655 110.147 142.655 106.584 144.531 104.803 148.281 104.803ZM252.077 204.098C252.077 192.471 245.139 179.907 231.262 166.405 217.385 152.716 201.258 142.871 182.88 136.87 183.818 140.245 184.286 144.277 184.286 148.965 184.286 153.466 182.599 161.998 179.223 174.563 176.035 187.127 170.128 208.13 161.502 237.572 157.939 249.948 155.032 263.544 152.782 278.359 165.721 276.671 180.161 271.045 196.101 261.481 212.228 251.73 225.542 241.322 236.044 230.258 246.733 219.194 252.077 210.474 252.077 204.098Z" fill="#FFFFFF" transform="matrix(1.00008 0 0 1 120 150)"/></g></svg>