<svg width="794" height="218" viewBox="0 0 794 218" fill="none" xmlns="http://www.w3.org/2000/svg">
<g clip-path="url(#clip0_369_30)">
<path d="M158.058 116C158.058 158.561 123.769 193.04 81.5006 193.04C39.2318 193.04 4.94336 158.561 4.94336 116C4.94336 73.4392 39.2318 38.9597 81.5006 38.9597C123.769 38.9597 158.058 73.4392 158.058 116Z" stroke="white" stroke-width="11"/>
<path d="M63.1117 78.7595C70.6143 78.7595 78.5961 80.7218 87.0565 84.6461C95.5968 88.5704 102.94 94.0166 109.086 100.984C115.232 107.872 118.304 115.04 118.304 122.488C118.304 127.374 114.912 133.14 108.128 139.788C101.423 146.355 93.6413 152.001 84.7817 156.727C75.9221 161.372 68.579 163.695 62.7525 163.695C61.2361 163.695 59.48 162.413 57.4847 159.85C55.5691 157.207 54.6113 154.564 54.6113 151.921C54.6113 149.198 56.9261 139.507 61.5553 122.849C66.1845 106.19 68.6987 95.2179 69.0979 89.932C66.5437 88.8909 64.5084 87.5293 62.992 85.8475C61.4756 84.1656 60.7172 82.5637 60.7172 81.0421C60.7172 79.5204 61.5153 78.7595 63.1117 78.7595ZM107.29 121.167C107.29 116.201 104.337 110.835 98.4302 105.069C92.5238 99.2225 85.6597 95.0178 77.8377 92.4548C78.2369 93.8965 78.4363 95.6185 78.4363 97.6206C78.4363 99.5428 77.718 103.187 76.2813 108.553C74.9244 113.919 72.4102 122.889 68.7387 135.463C67.2223 140.749 65.9851 146.555 65.0273 152.882C70.5346 152.162 76.6805 149.759 83.4647 145.674C90.329 141.51 95.9958 137.065 100.466 132.339C105.015 127.614 107.29 123.89 107.29 121.167Z" fill="white"/>
</g>
<path d="M233.066 57.314C243.469 57.314 254.535 60.0253 266.266 65.448C278.107 70.8707 288.289 78.396 296.81 88.024C305.331 97.5413 309.592 107.446 309.592 117.738C309.592 124.489 304.889 132.457 295.482 141.642C286.186 150.717 275.396 158.519 263.112 165.048C250.828 171.467 240.647 174.676 232.568 174.676C230.465 174.676 228.031 172.905 225.264 169.364C222.608 165.712 221.28 162.06 221.28 158.408C221.28 154.645 224.489 141.255 230.908 118.236C237.327 95.2173 240.813 80.056 241.366 72.752C237.825 71.3133 235.003 69.432 232.9 67.108C230.797 64.784 229.746 62.5707 229.746 60.468C229.746 58.3653 230.853 57.314 233.066 57.314ZM294.32 115.912C294.32 109.051 290.225 101.636 282.036 93.668C273.847 85.5893 264.329 79.7793 253.484 76.238C254.037 78.23 254.314 80.6093 254.314 83.376C254.314 86.032 253.318 91.0673 251.326 98.482C249.445 105.897 245.959 118.291 240.868 135.666C238.765 142.97 237.05 150.993 235.722 159.736C243.358 158.74 251.879 155.42 261.286 149.776C270.803 144.021 278.661 137.879 284.858 131.35C291.166 124.821 294.32 119.675 294.32 115.912ZM370.27 120.394C370.27 116.631 369.662 113.09 368.444 109.77C367.227 106.339 365.456 103.849 363.132 102.3C355.496 104.403 348.912 110.323 343.378 120.062C337.956 129.69 335.244 138.765 335.244 147.286C335.244 155.807 337.347 161.119 341.552 163.222C349.52 161.673 356.271 156.25 361.804 146.954C367.448 137.547 370.27 128.694 370.27 120.394ZM326.612 121.888C330.486 113.256 335.521 106.173 341.718 100.64C348.026 94.996 354.445 92.174 360.974 92.174C367.614 92.174 373.148 94.996 377.574 100.64C382.001 106.173 384.214 112.979 384.214 121.058C384.214 129.026 382.278 137.215 378.404 145.626C374.531 153.926 369.164 160.843 362.302 166.376C355.552 171.799 348.358 174.51 340.722 174.51C335.078 174.51 330.375 171.909 326.612 166.708C322.85 161.507 320.968 154.922 320.968 146.954C320.968 138.875 322.85 130.52 326.612 121.888ZM422.083 174.51C415.664 174.51 409.633 172.02 403.989 167.04C398.345 161.949 395.523 155.973 395.523 149.112C395.523 142.14 397.847 134.117 402.495 125.042C407.143 115.967 413.119 108.221 420.423 101.802C427.838 95.3833 435.031 92.174 442.003 92.174C446.54 92.174 450.524 94.2213 453.955 98.316C457.386 102.411 459.101 106.007 459.101 109.106C459.101 109.991 458.824 110.766 458.271 111.43C457.718 111.983 456.888 112.26 455.781 112.26C454.785 112.26 452.959 111.264 450.303 109.272C447.647 107.28 445.268 106.284 443.165 106.284C437.189 106.284 430.217 111.541 422.249 122.054C414.281 132.567 410.297 141.753 410.297 149.61C410.297 153.041 411.348 155.752 413.451 157.744C415.664 159.736 419.15 160.732 423.909 160.732C428.778 160.732 433.205 160.179 437.189 159.072C441.284 157.855 444.438 156.693 446.651 155.586C448.864 154.369 450.58 153.76 451.797 153.76C453.9 153.76 454.951 154.811 454.951 156.914C454.951 160.123 451.078 163.886 443.331 168.202C435.695 172.407 428.612 174.51 422.083 174.51ZM535.015 129.69C535.015 134.117 533.078 139.152 529.205 144.796C526.217 151.547 523.007 161.285 519.577 174.012C516.146 186.628 513.269 195.647 510.945 201.07C506.297 212.358 499.159 218.002 489.531 218.002C481.673 218.002 475.033 215.844 469.611 211.528C464.299 207.323 461.643 203.117 461.643 198.912C461.643 197.141 462.196 195.371 463.303 193.6C464.299 191.829 465.35 190.944 466.457 190.944C467.674 190.944 469.002 191.774 470.441 193.434C471.879 195.094 473.207 196.865 474.425 198.746C475.753 200.738 477.689 202.564 480.235 204.224C482.891 205.884 485.436 206.714 487.871 206.714C490.305 206.714 492.131 206.327 493.349 205.552C494.566 204.888 495.728 203.726 496.835 202.066C497.941 200.517 498.882 198.912 499.657 197.252C500.431 195.703 501.261 193.434 502.147 190.446C503.143 187.569 503.917 185.079 504.471 182.976C505.024 180.873 505.799 177.941 506.795 174.178C507.791 170.305 508.621 167.206 509.285 164.882C500.653 171.301 493.625 174.51 488.203 174.51C482.78 174.51 478.077 172.352 474.093 168.036C470.109 163.609 468.117 158.519 468.117 152.764C468.117 146.899 470.275 139.152 474.591 129.524C479.017 119.896 484.938 111.264 492.353 103.628C499.767 95.992 507.016 92.174 514.099 92.174C518.636 92.174 522.454 93.8893 525.553 97.32C530.643 102.964 533.189 110.987 533.189 121.39C533.189 122.718 533.133 123.659 533.023 124.212C534.351 126.093 535.015 127.919 535.015 129.69ZM481.563 154.424C481.563 156.305 482.171 157.855 483.389 159.072C484.606 160.179 486.155 160.732 488.037 160.732C493.57 160.732 500.099 157.467 507.625 150.938C515.15 144.298 520.462 136.607 523.561 127.864C523.118 126.425 522.731 124.212 522.399 121.224C522.067 118.236 521.735 115.857 521.403 114.086C521.071 112.315 520.351 110.545 519.245 108.774C518.138 106.893 516.699 105.952 514.929 105.952C510.613 105.952 505.743 109.051 500.321 115.248C494.898 121.445 490.416 128.362 486.875 135.998C483.333 143.634 481.563 149.776 481.563 154.424ZM614.298 119.73C614.298 125.595 611.089 130.409 604.67 134.172C598.362 137.824 591.169 139.65 583.09 139.65C575.122 139.65 567.873 138.765 561.344 136.994C559.795 141.863 559.02 146.235 559.02 150.108C559.02 153.871 560.182 156.803 562.506 158.906C564.941 161.009 568.869 162.06 574.292 162.06C579.825 162.06 585.469 161.119 591.224 159.238C597.089 157.246 600.299 156.25 600.852 156.25C603.729 156.25 605.168 157.357 605.168 159.57C605.168 162.558 601.793 165.823 595.042 169.364C588.291 172.795 581.707 174.51 575.288 174.51C566.656 174.51 559.629 171.965 554.206 166.874C548.783 161.673 546.072 155.143 546.072 147.286C546.072 139.429 548.175 131.239 552.38 122.718C556.585 114.086 562.008 106.837 568.648 100.972C575.288 95.1067 581.873 92.174 588.402 92.174C594.931 92.174 600.852 95.2727 606.164 101.47C611.587 107.667 614.298 113.754 614.298 119.73ZM589.232 105.288C585.137 105.288 580.877 107.446 576.45 111.762C572.023 115.967 568.261 121.224 565.162 127.532C569.589 128.528 574.624 129.026 580.268 129.026C585.912 129.026 590.837 128.141 595.042 126.37C599.247 124.489 601.35 122.054 601.35 119.066C601.35 116.078 599.967 113.035 597.2 109.936C594.544 106.837 591.888 105.288 589.232 105.288ZM639.064 145.626C649.688 127.587 658.32 114.197 664.96 105.454C671.711 96.6007 677.189 92.174 681.394 92.174C685.71 92.174 689.75 94.4427 693.512 98.98C697.386 103.517 699.322 108.331 699.322 113.422C699.322 121.39 697.496 131.129 693.844 142.638C687.204 163.886 681.228 174.51 675.916 174.51C673.482 174.51 672.264 172.85 672.264 169.53C672.264 167.206 673.426 162.503 675.75 155.42C678.185 148.227 680.398 141.199 682.39 134.338C684.493 127.366 685.544 122.165 685.544 118.734C685.544 115.193 684.991 112.592 683.884 110.932C682.888 109.272 681.837 108.442 680.73 108.442C679.734 108.442 678.683 108.774 677.576 109.438C676.47 110.102 675.197 111.209 673.758 112.758C672.43 114.307 671.158 115.857 669.94 117.406C668.723 118.845 667.174 120.947 665.292 123.714C663.522 126.481 662.028 128.86 660.81 130.852C659.593 132.733 657.822 135.5 655.498 139.152C653.174 142.804 651.404 145.571 650.186 147.452C648.969 149.333 647.364 151.879 645.372 155.088C643.38 158.297 641.776 160.787 640.558 162.558C639.452 164.329 638.179 166.265 636.74 168.368C633.974 172.463 631.76 174.51 630.1 174.51C628.551 174.51 626.725 173.293 624.622 170.858C622.52 168.313 621.468 166.099 621.468 164.218C621.468 163.665 621.856 162.171 622.63 159.736C624.733 153.317 627.057 145.405 629.602 135.998C632.148 126.481 633.531 115.691 633.752 103.628C634.084 95.5493 635.246 91.51 637.238 91.51C639.673 91.51 642.108 92.7827 644.542 95.328C646.977 97.8733 648.194 100.695 648.194 103.794C648.194 106.782 647.254 112.647 645.372 121.39C643.602 130.022 641.499 138.101 639.064 145.626ZM732.556 68.602C732.556 66.3887 733.441 64.286 735.212 62.294C736.983 60.302 738.753 59.306 740.524 59.306C742.405 59.306 744.619 61.5747 747.164 66.112C749.709 70.5387 750.982 74.246 750.982 77.234C750.982 78.3407 750.484 79.3367 749.488 80.222C748.492 81.1073 747.441 81.55 746.334 81.55C743.678 81.55 740.69 79.9453 737.37 76.736C734.161 73.5267 732.556 70.8153 732.556 68.602ZM731.726 92.174C733.829 92.174 735.821 93.4467 737.702 95.992C739.583 98.5373 740.524 101.027 740.524 103.462C740.524 105.897 738.919 113.201 735.71 125.374C732.501 137.437 728.461 150.993 723.592 166.044C721.711 171.577 719.331 174.344 716.454 174.344C714.905 174.344 713.577 173.735 712.47 172.518C711.363 171.19 710.81 169.751 710.81 168.202C710.81 166.542 711.197 163.997 711.972 160.566C712.857 157.025 714.075 152.377 715.624 146.622C717.284 140.757 718.557 135.998 719.442 132.346C720.438 128.694 721.434 124.599 722.43 120.062C723.426 115.414 724.201 111.707 724.754 108.94C725.418 106.063 726.137 103.185 726.912 100.308C728.461 94.8853 730.066 92.174 731.726 92.174Z" fill="white"/>
<defs>
<clipPath id="clip0_369_30">
<rect width="163" height="164" fill="white" transform="translate(0 34)"/>
</clipPath>
</defs>
</svg>
